<?xml version="1.0" standalone="no"?>
<!DOCTYPE svg PUBLIC "-//W3C//DTD SVG 20010904//EN"
 "http://www.w3.org/TR/2001/REC-SVG-20010904/DTD/svg10.dtd">
<svg version="1.0" xmlns="http://www.w3.org/2000/svg"
 width="500.000000pt" height="500.000000pt" viewBox="0 0 500.000000 500.000000"
 preserveAspectRatio="xMidYMid meet">

<g transform="translate(0.000000,500.000000) scale(0.100000,-0.100000)"
fill="#000000" stroke="none">
<path d="M1135 4476 c-60 -28 -87 -56 -114 -116 -20 -45 -21 -58 -21 -1360 l0
-1315 24 -50 c28 -60 56 -87 116 -114 45 -20 58 -21 1360 -21 l1315 0 50 24
c60 28 87 56 114 116 20 45 21 58 21 1360 0 1302 -1 1315 -21 1360 -27 60 -54
88 -114 116 l-50 24 -1315 0 -1315 0 -50 -24z m2661 -75 c48 -22 100 -82 115
-131 6 -23 9 -460 7 -1291 l-3 -1255 -28 -42 c-15 -23 -46 -54 -69 -69 l-42
-28 -1255 -3 c-831 -2 -1268 1 -1291 7 -49 15 -109 67 -131 115 -18 39 -19 97
-19 1294 0 1029 2 1258 13 1285 21 49 67 98 112 118 38 18 99 19 1295 19 1199
0 1257 -1 1296 -19z"/>
<path d="M1911 3898 c-78 -176 -260 -466 -340 -541 l-52 -48 22 -62 c13 -34
24 -64 25 -65 1 -2 26 1 56 7 60 13 262 40 266 36 1 -1 -30 -45 -70 -96 -86
-112 -222 -255 -259 -275 l-27 -14 21 -67 c12 -38 22 -69 22 -71 1 -1 36 7 78
17 109 28 529 94 537 84 4 -4 13 -29 20 -56 11 -42 15 -47 34 -41 49 16 106
44 106 53 0 25 -145 411 -154 411 -9 0 -103 -34 -109 -40 -4 -3 8 -49 28 -100
19 -51 34 -94 33 -95 -4 -4 -320 -45 -343 -45 -15 0 -11 9 26 48 72 74 150
170 249 307 90 124 197 284 206 310 3 8 -18 27 -54 49 -33 20 -62 36 -65 36
-4 0 -25 -33 -48 -72 -34 -59 -110 -178 -125 -197 -4 -5 -248 -30 -252 -26 -2
2 26 43 62 91 62 84 167 255 250 406 l37 68 -55 24 c-96 43 -89 45 -125 -36z"/>
<path d="M3266 3924 c-91 -33 -540 -121 -808 -159 l-48 -6 0 -760 c0 -812 1
-798 -49 -848 l-21 -21 26 -37 c14 -21 30 -48 35 -60 l8 -22 73 34 c40 18 145
58 233 89 88 31 172 62 188 68 29 11 32 25 19 104 l-7 41 -170 -53 c-93 -29
-173 -54 -177 -54 -5 0 -8 167 -8 370 l0 370 190 0 189 0 5 -32 c3 -18 12 -96
21 -173 51 -438 150 -683 293 -726 91 -27 169 22 201 126 27 85 48 268 32 273
-7 2 -34 19 -61 37 -28 19 -50 32 -50 31 0 -61 -25 -268 -35 -292 -27 -64 -85
-32 -131 72 -49 110 -101 373 -120 602 l-7 82 182 0 181 0 0 75 0 75 -184 0
-184 0 -5 53 c-4 28 -9 161 -13 294 -5 202 -4 243 7 247 8 2 84 20 169 40 85
20 160 40 167 44 7 5 -8 28 -45 69 l-57 62 -39 -15z m-352 -396 c3 -95 9 -224
12 -285 l6 -113 -186 0 -186 0 0 255 c0 196 3 256 13 259 6 2 82 15 167 29 85
13 158 25 161 26 4 0 9 -77 13 -171z"/>
<path d="M2165 2653 c-27 -8 -52 -16 -53 -18 -2 -2 10 -48 26 -102 17 -54 41
-136 53 -183 12 -47 23 -87 25 -89 4 -4 106 29 116 38 13 11 -95 372 -110 370
-4 0 -29 -7 -57 -16z"/>
<path d="M1917 2600 c-20 -4 -40 -10 -43 -13 -3 -3 1 -54 9 -114 9 -59 21
-157 28 -218 6 -60 13 -112 15 -114 2 -2 31 2 64 9 l60 13 0 36 c-1 34 -11
117 -41 324 -13 96 -10 93 -92 77z"/>
<path d="M1616 2578 c-3 -13 -14 -83 -26 -157 -12 -73 -32 -172 -46 -219 -14
-46 -23 -86 -22 -87 2 -1 31 -14 65 -27 l62 -25 21 78 c30 112 58 245 73 348
l14 90 -62 10 c-79 14 -74 15 -79 -11z"/>
<path d="M1120 835 l0 -195 40 0 40 0 0 58 c0 44 5 63 18 75 10 10 21 17 24
17 3 0 27 -34 54 -75 l49 -75 49 0 48 0 -18 28 c-9 15 -41 63 -70 106 l-53 79
47 59 c26 32 58 72 71 88 l24 30 -49 0 -49 -1 -70 -87 -70 -87 -3 88 -3 87
-39 0 -40 0 0 -195z"/>
<path d="M1595 1018 c-51 -146 -125 -364 -125 -371 0 -4 19 -7 42 -5 39 3 42
5 56 46 l14 43 71 -3 70 -3 15 -42 c13 -42 15 -43 57 -43 l44 0 -65 186 c-35
103 -67 191 -70 195 -8 14 -104 11 -109 -3z m99 -205 c7 -22 4 -23 -38 -23
-32 0 -46 4 -46 14 0 12 19 71 36 116 6 14 20 -19 48 -107z"/>
<path d="M1890 835 l0 -195 40 0 40 0 0 123 1 122 48 -120 c46 -113 50 -120
77 -120 26 0 31 7 78 125 l51 125 3 -127 3 -128 39 0 40 0 0 196 0 195 -52 -3
-53 -3 -51 -122 c-28 -68 -53 -125 -56 -128 -3 -3 -29 53 -58 125 l-53 130
-49 0 -48 0 0 -195z"/>
<path d="M2380 835 l0 -195 40 0 40 0 0 195 0 195 -40 0 -40 0 0 -195z"/>
<path d="M2530 835 l0 -195 40 0 40 0 0 80 0 80 80 0 80 0 0 35 0 35 -80 0
-80 0 0 45 0 45 91 0 90 0 -3 33 -3 32 -127 3 -128 3 0 -196z"/>
<path d="M2950 1023 c-141 -53 -154 -299 -19 -369 39 -20 128 -20 166 -1 84
44 120 144 89 249 -16 57 -52 100 -99 117 -30 11 -111 14 -137 4z m131 -92
c26 -27 29 -36 29 -96 0 -60 -3 -69 -29 -96 -37 -37 -88 -39 -127 -6 -50 43
-44 175 10 212 35 25 84 19 117 -14z"/>
<path d="M3260 835 l0 -195 120 0 120 0 0 35 0 35 -80 0 -80 0 0 160 0 160
-40 0 -40 0 0 -195z"/>
<path d="M3560 836 l0 -196 93 0 c104 0 159 19 195 65 50 63 53 177 7 246 -38
58 -74 72 -192 77 l-103 4 0 -196z m190 106 c63 -31 77 -140 26 -199 -18 -21
-34 -27 -79 -31 l-57 -4 0 126 0 126 38 0 c20 0 53 -8 72 -18z"/>
</g>
</svg>
